# Blender 4.4.3
# www.blender.org
mtllib DeathMaskFinished.mtl
o Plane.001
v -0.446638 1.249057 -0.000000
v 0.970962 -0.946268 -0.000000
v -0.153994 1.634070 0.000000
v 0.512991 1.802395 -0.002279
v 0.194826 1.743352 0.000000
v -0.095412 -0.229378 -0.000000
v -0.101976 -0.821316 -0.000000
v -0.500295 0.627633 -0.000000
v -0.488993 0.219207 -0.000000
v -0.047670 -0.491781 -0.000000
v 0.213972 -0.969734 -0.000000
v 0.761777 -1.067881 -0.000000
v -0.041823 -0.947789 -0.000000
v 0.786046 -0.450482 0.000000
v 1.005392 -0.279182 0.000000
v 0.911349 -0.653171 -0.000000
v 0.984896 0.295814 0.000000
v 0.921201 0.397183 0.000000
v 0.992203 0.034040 0.000000
v 1.207824 0.797377 0.000000
v 1.056306 1.331511 0.000000
v 1.194692 0.415851 0.000000
v 1.021954 1.436258 0.000000
v 1.279153 0.478603 0.000000
v 1.059170 1.244386 0.000000
v 0.982313 0.455356 0.000000
v 1.000832 1.491582 0.000000
v 0.945621 1.608083 0.000000
v 0.514946 -1.094405 -0.004275
v 0.510671 1.289874 1.089947
v 0.510671 0.216568 0.813910
v 0.510671 1.240582 -1.077647
v 0.510671 0.310223 -0.974133
v 0.761777 -1.067881 -0.000000
v 0.510671 1.713787 0.703319
v 0.510671 1.748292 -0.513567
v 0.510671 0.504295 -1.094899
v 0.510671 -0.468594 -0.802243
v 0.510671 -0.675622 -0.681793
v 0.510671 -1.098549 0.238088
v 0.510671 -1.065030 -0.342125
v 0.510671 -0.788994 0.601416
v 0.510671 0.760615 1.126916
v 0.846376 -1.009262 0.211296
v 0.833162 -0.645326 0.245520
v 0.893957 -0.284348 0.168348
v 0.884253 -0.300123 -0.213192
v 0.813765 -0.628071 -0.299783
v 0.828356 -0.525306 -0.412745
v 0.863156 -0.403767 -0.441736
v 0.910388 -0.318788 -0.325459
v 0.824240 -0.996892 -0.194717
v 0.920419 0.467832 -0.262716
v 0.928902 0.469574 0.165312
v 0.138723 1.646211 -0.350743
v 0.510671 1.550280 -0.823322
v -0.010598 1.450830 -0.454350
v -0.068946 1.070321 -0.761519
v -0.096937 0.572091 -0.524731
v 0.270115 -0.206135 -0.487067
v 0.801782 -0.083192 -0.679589
v 0.989795 0.873976 -0.149951
v 0.715545 0.455403 -0.655925
v 0.960481 1.078471 -0.547450
v 1.065437 1.613535 -0.256784
v 0.834197 -0.548447 0.377298
v 0.846166 -0.437477 0.441913
v 0.837179 -0.310652 0.377717
v 0.510671 -0.286213 0.707663
v 0.783848 -0.033890 0.461760
v 0.933758 0.075920 0.149447
v 0.857995 0.326378 0.444871
v 0.915403 0.043862 -0.271205
v 0.856085 -0.200990 -0.502524
v 0.715545 0.358367 -0.595542
v 0.656227 0.113516 -0.826861
v 0.836519 0.078689 -0.570836
v 0.179701 1.549199 0.654370
v -0.246329 0.944427 0.547899
v -0.319735 0.324310 0.461160
v 0.994036 0.856980 0.082656
v 1.020946 1.063047 0.458635
v -0.101976 -0.821316 -0.000000
v 0.510671 -0.788994 0.601416
v 0.121214 -0.489807 0.520585
v -0.052471 -0.221435 0.429451
v 0.743977 0.566326 -0.506209
v 0.931434 0.709530 -0.370015
v 0.672376 0.709530 -0.285840
v 0.512267 0.709531 -0.506209
v 0.672376 0.709530 -0.726578
v 0.931434 0.709530 -0.642403
v 0.815578 0.941243 -0.285840
v 0.556519 0.941243 -0.370015
v 0.556519 0.941243 -0.642403
v 0.815578 0.941243 -0.726578
v 0.975687 0.941242 -0.506209
v 0.743977 1.084446 -0.506209
v 0.701891 0.605016 -0.376680
v 0.854161 0.605016 -0.426156
v 0.812075 0.689189 -0.296626
v 0.964345 0.689189 -0.506209
v 0.854161 0.605016 -0.586261
v 0.607781 0.605016 -0.506209
v 0.565694 0.689189 -0.376680
v 0.701891 0.605016 -0.635738
v 0.565694 0.689189 -0.635738
v 0.812075 0.689189 -0.715791
v 0.990358 0.825386 -0.426156
v 0.990358 0.825386 -0.586262
v 0.743977 0.825386 -0.247149
v 0.896248 0.825386 -0.296625
v 0.497596 0.825386 -0.426156
v 0.591705 0.825386 -0.296625
v 0.591705 0.825386 -0.715793
v 0.497596 0.825386 -0.586262
v 0.896248 0.825386 -0.715793
v 0.743977 0.825386 -0.765269
v 0.922259 0.961583 -0.376680
v 0.675878 0.961584 -0.296626
v 0.523608 0.961583 -0.506209
v 0.675878 0.961584 -0.715791
v 0.922259 0.961583 -0.635738
v 0.786062 1.045757 -0.376680
v 0.880172 1.045756 -0.506209
v 0.633793 1.045757 -0.426156
v 0.633793 1.045757 -0.586261
v 0.786062 1.045757 -0.635738
v 0.840009 0.991622 0.358724
v 0.671238 0.862694 0.236106
v 0.904472 0.862694 0.160322
v 1.048621 0.862693 0.358724
v 0.904472 0.862694 0.557126
v 0.671238 0.862694 0.481342
v 0.775545 0.654079 0.160322
v 1.008780 0.654079 0.236106
v 1.008780 0.654079 0.481342
v 0.775545 0.654079 0.557125
v 0.631397 0.654080 0.358724
v 0.840009 0.525151 0.358724
v 0.877899 0.956789 0.242107
v 0.740808 0.956789 0.286651
v 0.778699 0.881007 0.170034
v 0.641608 0.881007 0.358724
v 0.740808 0.956789 0.430796
v 0.962628 0.956789 0.358724
v 1.000519 0.881007 0.242107
v 0.877899 0.956789 0.475340
v 1.000519 0.881007 0.475341
v 0.778699 0.881007 0.547414
v 0.618188 0.758386 0.286651
v 0.618188 0.758386 0.430797
v 0.840009 0.758386 0.125488
v 0.702916 0.758386 0.170032
v 1.061829 0.758386 0.286651
v 0.977101 0.758386 0.170032
v 0.977101 0.758386 0.547415
v 1.061829 0.758386 0.430797
v 0.702916 0.758386 0.547415
v 0.840009 0.758386 0.591959
v 0.679499 0.635766 0.242107
v 0.901319 0.635766 0.170034
v 1.038410 0.635766 0.358724
v 0.901319 0.635766 0.547414
v 0.679499 0.635766 0.475341
v 0.802118 0.559984 0.242107
v 0.717390 0.559984 0.358724
v 0.939209 0.559984 0.286651
v 0.939209 0.559984 0.430796
v 0.802118 0.559984 0.475340
vn -0.0000 -0.0001 1.0000
vn 1.0000 -0.0000 -0.0000
vn -0.1071 0.9941 0.0151
vn -0.5022 0.8639 -0.0386
vn 0.4967 -0.8545 -0.1522
vn -0.9371 -0.1906 -0.2923
vn -0.9380 -0.1908 0.2894
vn 0.8079 -0.1401 -0.5724
vn -0.8634 0.0161 -0.5043
vn -0.2655 0.9511 -0.1575
vn -0.1069 0.9447 0.3101
vn -0.2504 0.9642 0.0870
vn 0.8741 -0.4727 0.1120
vn 0.9940 -0.0243 0.1063
vn 0.9601 -0.2410 0.1421
vn 0.8186 -0.5683 0.0828
vn 0.9347 -0.2444 0.2582
vn 0.5939 -0.7604 -0.2628
vn 0.5747 -0.7359 0.3579
vn 0.1828 0.9828 -0.0255
vn -0.3781 0.5089 -0.7733
vn -0.4699 0.6325 0.6157
vn -0.1822 0.9779 -0.1027
vn -0.3398 0.9189 -0.2002
vn -0.2922 0.9327 -0.2116
vn -0.4231 0.7634 -0.4880
vn -0.5741 0.6803 -0.4556
vn -0.7134 0.5423 -0.4438
vn -0.5084 0.6733 -0.5368
vn -0.5555 0.5277 -0.6426
vn -0.7260 0.4959 -0.4765
vn -0.5140 0.5852 -0.6272
vn -0.4834 0.0205 -0.8752
vn -0.8575 -0.0458 -0.5124
vn -0.6724 -0.2866 -0.6825
vn -0.7938 -0.0220 -0.6078
vn -0.6501 -0.4014 -0.6451
vn -0.6472 -0.3903 -0.6548
vn -0.8345 -0.1188 -0.5380
vn -0.8076 -0.0941 -0.5821
vn -0.7802 -0.0608 -0.6226
vn -0.6702 -0.3187 -0.6703
vn -0.0774 -0.9028 -0.4231
vn -0.7338 -0.4466 -0.5120
vn -0.3825 -0.9209 -0.0752
vn 0.6424 -0.3811 -0.6649
vn 0.6650 -0.5932 -0.4538
vn 0.6962 -0.3610 -0.6204
vn 0.7007 -0.3491 -0.6223
vn 0.8673 0.0365 -0.4964
vn 0.8759 0.0245 -0.4818
vn 0.9330 -0.2501 0.2588
vn 0.5424 0.3408 -0.7678
vn 0.9999 -0.0123 -0.0053
vn 0.5398 0.5600 -0.6285
vn 0.6674 -0.2852 -0.6879
vn 0.8189 0.2766 -0.5028
vn 0.5832 0.1305 -0.8018
vn 0.5968 0.1594 -0.7864
vn 0.8600 -0.2696 -0.4333
vn 0.8869 -0.0234 -0.4614
vn 0.9821 -0.1280 -0.1383
vn 0.9183 -0.3205 -0.2326
vn 0.8625 -0.2639 -0.4319
vn 0.6765 -0.7107 -0.1931
vn 0.1829 0.9831 0.0036
vn 0.7647 0.0151 -0.6442
vn 0.7517 0.4186 -0.5097
vn 0.7719 0.5357 -0.3424
vn 0.7584 0.1900 -0.6235
vn 0.9969 0.0328 0.0714
vn 0.8894 0.2917 0.3520
vn 0.8661 0.3307 0.3749
vn 0.8299 0.3933 0.3956
vn 0.4001 0.8931 0.2056
vn 0.2793 0.9547 -0.1023
vn 0.8329 0.0351 0.5524
vn 0.8434 0.0235 0.5367
vn 0.7668 -0.6288 0.1290
vn 0.9909 0.0020 -0.1349
vn 0.9906 -0.0289 -0.1339
vn 0.9883 0.1190 -0.0952
vn 0.8244 0.5096 0.2462
vn -0.2464 0.7377 -0.6285
vn -0.7476 0.0352 -0.6632
vn 0.7101 -0.5699 0.4134
vn 0.7056 -0.4118 0.5766
vn -0.5633 0.1708 -0.8084
vn 0.6736 0.3712 0.6391
vn -0.6974 0.1482 -0.7012
vn 0.8645 0.0140 0.5024
vn 0.3387 0.2128 0.9165
vn 0.9822 -0.0463 -0.1820
vn 0.6631 -0.6966 0.2741
vn 0.9093 -0.0790 0.4087
vn 0.7406 -0.1214 0.6609
vn 0.9104 -0.1697 0.3773
vn 0.9691 0.0020 0.2468
vn 0.8974 0.1382 -0.4190
vn 0.9643 0.0161 -0.2643
vn 0.8896 0.1074 -0.4440
vn 0.4229 0.0946 0.9012
vn 0.3887 0.1293 0.9122
vn -0.1803 0.9760 0.1220
vn -0.2945 0.9401 0.1718
vn -0.4061 0.6158 0.6752
vn -0.4586 0.8209 0.3403
vn -0.7165 0.5446 0.4360
vn -0.7333 0.3390 -0.5893
vn -0.7421 0.4327 0.5119
vn -0.6447 0.3330 0.6881
vn -0.5980 0.0558 0.7995
vn 0.6170 0.3924 -0.6821
vn -0.9212 0.0795 0.3810
vn -0.9014 -0.0249 0.4323
vn -0.9415 0.0652 0.3307
vn 0.3985 0.0806 -0.9136
vn 0.9751 -0.1248 0.1834
vn 0.9866 -0.1620 0.0182
vn 0.9750 -0.2166 0.0489
vn -0.8200 0.1915 -0.5395
vn 0.7845 0.0432 0.6186
vn 0.6840 0.6571 0.3168
vn 0.8934 0.0294 0.4484
vn 0.8541 0.2801 0.4383
vn 0.8402 0.3208 0.4372
vn 0.8129 0.3852 0.4368
vn 0.8053 0.3995 0.4380
vn 0.4065 0.9064 0.1152
vn 0.3829 0.9235 0.0225
vn 0.6480 0.5797 -0.4939
vn 0.0809 0.9428 -0.3233
vn 0.6570 0.3125 -0.6861
vn -0.0000 -0.0000 1.0000
vn 0.5612 0.5678 -0.6022
vn 0.3403 0.1944 -0.9200
vn 0.9399 -0.1549 -0.3043
vn 0.9371 0.1705 -0.3046
vn 0.8501 0.5181 -0.0946
vn 0.4411 -0.0192 -0.8973
vn 0.4523 0.1844 -0.8726
vn 0.4059 0.2498 -0.8791
vn 0.8916 0.4423 -0.0973
vn -0.6915 -0.6067 0.3921
vn 0.1024 -0.9435 0.3151
vn 0.7002 -0.6617 0.2680
vn -0.2680 -0.9435 0.1947
vn -0.2680 -0.9435 -0.1947
vn 0.1024 -0.9435 -0.3151
vn 0.9050 -0.3304 0.2680
vn 0.0247 -0.3304 0.9435
vn -0.8897 -0.3304 0.3151
vn -0.5746 -0.3304 -0.7488
vn 0.5346 -0.3304 -0.7779
vn 0.8026 -0.1256 0.5831
vn -0.3066 -0.1256 0.9435
vn -0.9921 -0.1256 -0.0000
vn -0.3066 -0.1256 -0.9435
vn 0.8026 -0.1256 -0.5831
vn 0.4089 0.6617 0.6284
vn -0.4713 0.6617 0.5831
vn -0.7002 0.6617 -0.2680
vn 0.0385 0.6617 -0.7488
vn 0.7240 0.6617 -0.1947
vn 0.2680 0.9435 -0.1947
vn 0.4911 0.7947 -0.3568
vn 0.4089 0.6617 -0.6284
vn -0.1024 0.9435 -0.3151
vn -0.1876 0.7947 -0.5773
vn -0.4713 0.6617 -0.5831
vn -0.3313 0.9435 -0.0000
vn -0.6071 0.7947 -0.0000
vn -0.7002 0.6617 0.2680
vn -0.1024 0.9435 0.3151
vn -0.1876 0.7947 0.5773
vn 0.0385 0.6617 0.7488
vn 0.2680 0.9435 0.1947
vn 0.4911 0.7947 0.3568
vn 0.7240 0.6617 0.1947
vn 0.8897 0.3304 -0.3151
vn 0.7947 0.1876 -0.5773
vn 0.5746 0.3304 -0.7488
vn -0.0247 0.3304 -0.9435
vn -0.3035 0.1876 -0.9342
vn -0.5346 0.3304 -0.7779
vn -0.9050 0.3304 -0.2680
vn -0.9822 0.1876 -0.0000
vn -0.9050 0.3304 0.2680
vn -0.5346 0.3304 0.7779
vn -0.3035 0.1876 0.9342
vn -0.0247 0.3304 0.9435
vn 0.5746 0.3304 0.7488
vn 0.7947 0.1876 0.5773
vn 0.8897 0.3304 0.3151
vn 0.3066 0.1256 -0.9435
vn 0.3035 -0.1876 -0.9342
vn 0.0247 -0.3304 -0.9435
vn -0.8026 0.1256 -0.5831
vn -0.7947 -0.1876 -0.5773
vn -0.8897 -0.3304 -0.3151
vn -0.8026 0.1256 0.5831
vn -0.7947 -0.1876 0.5773
vn -0.5746 -0.3304 0.7488
vn 0.3066 0.1256 0.9435
vn 0.3035 -0.1876 0.9342
vn 0.5346 -0.3304 0.7779
vn 0.9921 0.1256 -0.0000
vn 0.9822 -0.1876 -0.0000
vn 0.9050 -0.3304 -0.2680
vn 0.4713 -0.6617 -0.5831
vn 0.1876 -0.7947 -0.5773
vn -0.0385 -0.6617 -0.7488
vn -0.4089 -0.6617 -0.6284
vn -0.4911 -0.7947 -0.3568
vn -0.7240 -0.6617 -0.1947
vn -0.7240 -0.6617 0.1947
vn -0.4911 -0.7947 0.3568
vn -0.4089 -0.6617 0.6284
vn 0.7002 -0.6617 -0.2680
vn 0.6071 -0.7947 -0.0000
vn 0.3313 -0.9435 -0.0000
vn -0.0385 -0.6617 0.7488
vn 0.1876 -0.7947 0.5773
vn 0.4713 -0.6617 0.5831
vt 0.000000 0.000000
vt 0.250000 0.000000
vt 0.375000 0.000000
vt 0.500000 0.000000
vt 0.625000 0.000000
vt 0.750000 0.000000
vt 0.812500 0.000000
vt 0.875000 0.000000
vt 0.906250 0.000000
vt 0.937500 0.000000
vt 1.000000 0.000000
vt 1.000000 0.250000
vt 1.000000 0.500000
vt 1.000000 0.750000
vt 1.000000 0.812500
vt 1.000000 0.875000
vt 1.000000 0.937500
vt 1.000000 0.945312
vt 1.000000 0.953125
vt 1.000000 0.960938
vt 1.000000 0.968750
vt 1.000000 0.976562
vt 1.000000 0.984375
vt 1.000000 0.992188
vt 1.000000 0.996094
vt 1.000000 0.998047
vt 1.000000 1.000000
vt 0.500000 1.000000
vt 0.000000 1.000000
vt 1.000000 0.031250
vt 1.000000 0.062500
vt 1.000000 0.125000
vt 1.000000 0.156250
vt 1.000000 0.187500
vt 0.000000 0.875000
vt 0.000000 0.750000
vt 0.000000 0.500000
vt 0.000000 0.250000
vt 0.125000 0.000000
vt 0.750000 0.500000
vt 0.750000 0.750000
vt 0.500000 0.500000
vt 0.250000 0.250000
vt 0.375000 0.375000
vt 0.500000 0.488281
vt 0.250000 0.500000
vt 0.750000 0.988281
vt 0.500000 0.863281
vt 0.181819 0.000000
vt 0.227273 0.078731
vt 0.136365 0.078731
vt 0.272728 0.157461
vt 0.318182 0.078731
vt 0.363637 0.157461
vt 0.909091 0.000000
vt 0.954545 0.078731
vt 0.863636 0.078731
vt 0.727273 0.000000
vt 0.772727 0.078731
vt 0.681818 0.078731
vt 0.545455 0.000000
vt 0.590909 0.078731
vt 0.500000 0.078731
vt 0.318182 0.236191
vt 0.090910 0.157461
vt 0.181819 0.157461
vt 0.136365 0.236191
vt 0.818182 0.157461
vt 0.909091 0.157461
vt 0.863636 0.236191
vt 0.636364 0.157461
vt 0.727273 0.157461
vt 0.681818 0.236191
vt 0.454546 0.157461
vt 0.545455 0.157461
vt 0.500000 0.236191
vt 0.227273 0.236191
vt 0.045455 0.236191
vt 0.772727 0.236191
vt 0.590909 0.236191
vt 0.409092 0.236191
vt 0.181819 0.314921
vt 0.272728 0.314921
vt 0.227273 0.393651
vt 0.000000 0.314921
vt 0.090910 0.314921
vt 0.045455 0.393651
vt 0.727273 0.314921
vt 0.818182 0.314921
vt 0.772727 0.393651
vt 0.545455 0.314921
vt 0.636364 0.314921
vt 0.590909 0.393651
vt 0.363637 0.314921
vt 0.454546 0.314921
vt 0.409092 0.393651
vt 0.500000 0.393651
vt 0.454546 0.472382
vt 0.681818 0.393651
vt 0.636364 0.472382
vt 0.863636 0.393651
vt 0.818182 0.472382
vt 0.909091 0.314921
vt 0.136365 0.393651
vt 0.090910 0.472382
vt 0.318182 0.393651
vt 0.272728 0.472382
vt 0.954545 0.236191
vt 1.000000 0.157461
vt 0.409092 0.078731
vt 0.363637 0.000000
s 0
f 1/1/1 8/2/1 9/3/1 6/4/1 10/5/1 7/6/1 13/7/1 11/8/1 29/9/1 12/10/1 2/11/1 16/12/1 14/13/1 15/14/1 19/15/1 17/16/1 18/17/1 26/18/1 22/19/1 24/20/1 20/21/1 25/22/1 21/23/1 23/24/1 27/25/1 28/26/1 4/27/1 5/28/1 3/29/1
f 30/1/2 43/4/2 31/11/2 69/30/2 42/31/2 40/32/2 29/33/2 41/34/2 39/12/2 38/13/2 33/27/2 37/28/2 32/29/2 56/35/2 36/36/2 4/37/2 35/38/2
f 29/33/3 40/32/3 12/10/3
f 44/1/4 2/1/4 34/1/4 12/1/4
f 2/11/5 12/10/5 52/1/5
f 16/12/6 2/11/6 45/1/6
f 16/12/7 48/1/7 2/11/7
f 52/1/8 48/1/8 2/11/8
f 2/11/9 44/1/9 45/1/9
f 40/1/10 44/1/10 12/1/10 34/1/10
f 52/1/11 29/1/11 34/1/11 12/1/11
f 29/1/12 52/1/12 41/34/12
f 29/33/13 41/34/13 52/1/13 48/1/13 14/13/13 16/12/13
f 49/1/14 14/13/14 48/1/14
f 50/1/15 14/13/15 49/1/15
f 51/1/16 14/13/16 50/1/16
f 47/1/17 14/13/17 51/1/17
f 14/13/18 47/1/18 15/14/18
f 46/1/19 14/13/19 15/14/19
f 22/19/20 26/18/20 54/1/20
f 24/20/21 22/19/21 54/1/21
f 53/1/22 22/19/22 24/20/22
f 4/37/23 36/36/23 5/28/23
f 36/36/24 55/1/24 5/28/24
f 3/29/25 5/28/25 55/1/25
f 36/36/26 56/35/26 55/1/26
f 55/1/27 57/1/27 3/29/27
f 1/1/28 3/29/28 57/1/28
f 55/1/29 56/35/29 57/1/29
f 56/35/30 32/29/30 57/1/30
f 57/1/31 58/1/31 1/1/31
f 57/1/32 32/29/32 58/1/32
f 32/29/33 37/28/33 58/1/33
f 8/2/34 1/1/34 58/1/34 59/39/34
f 58/1/35 37/28/35 59/39/35
f 9/3/36 8/2/36 59/39/36
f 37/28/37 33/27/37 59/39/37
f 9/3/38 59/39/38 33/27/38 60/40/38 6/4/38
f 33/27/39 38/13/39 60/40/39
f 6/4/40 60/40/40 38/13/40 10/5/40
f 10/5/41 38/13/41 39/12/41 7/6/41
f 13/7/42 7/6/42 39/12/42
f 11/8/43 13/7/43 39/12/43
f 39/12/44 41/34/44 11/8/44
f 11/1/45 41/1/45 29/1/45
f 52/1/46 41/1/46 39/1/46 48/1/46
f 48/1/47 39/1/47 49/1/47
f 38/13/48 49/1/48 39/1/48
f 49/1/49 38/13/49 50/1/49
f 19/15/50 15/14/50 47/1/50
f 17/16/51 19/15/51 47/1/51
f 47/1/52 51/1/52 17/16/52
f 17/16/53 51/1/53 18/17/53
f 53/1/54 18/17/54 51/1/54 73/1/54
f 51/1/55 50/1/55 38/13/55
f 33/27/56 76/41/56 61/42/56 74/43/56 51/1/56 38/13/56
f 77/44/57 76/41/57 33/27/57 75/42/57
f 24/20/58 53/1/58 20/21/58
f 25/22/59 20/21/59 53/1/59 62/45/59
f 53/1/60 75/42/60 33/27/60 37/28/60 63/46/60
f 53/1/61 63/46/61 62/45/61
f 62/45/62 64/47/62 25/22/62
f 62/45/63 63/46/63 64/47/63
f 63/46/64 37/28/64 64/47/64
f 26/18/65 18/17/65 53/1/65
f 53/1/66 26/1/66 22/1/66
f 64/47/67 37/28/67 32/29/67
f 64/47/68 32/29/68 56/35/68
f 36/36/69 64/47/69 56/35/69
f 64/47/70 36/36/70 65/48/70 25/22/70
f 21/23/71 25/22/71 65/48/71
f 23/24/72 21/23/72 65/48/72
f 27/25/73 23/24/73 65/48/73
f 28/26/74 27/25/74 65/48/74
f 4/27/75 28/26/75 65/48/75
f 65/1/76 36/1/76 4/1/76
f 19/15/77 46/1/77 15/14/77
f 17/16/78 46/1/78 19/15/78
f 46/1/79 68/1/79 14/13/79
f 68/1/80 67/1/80 14/13/80
f 67/1/81 66/1/81 14/13/81
f 66/1/82 45/1/82 14/13/82
f 45/1/83 16/1/83 14/1/83
f 40/1/84 42/31/84 44/1/84
f 44/1/85 42/31/85 45/1/85
f 66/1/86 42/31/86 45/1/86
f 67/1/87 42/31/87 66/1/87
f 42/31/88 69/30/88 67/1/88
f 67/1/89 68/1/89 69/30/89
f 69/30/90 31/11/90 68/1/90
f 68/1/91 46/1/91 70/4/91 31/11/91
f 18/17/92 46/1/92 17/16/92
f 54/1/93 71/1/93 46/1/93 18/17/93
f 54/1/94 18/1/94 26/1/94
f 46/1/95 71/1/95 70/4/95
f 70/4/96 72/4/96 31/11/96
f 70/4/97 71/1/97 72/4/97
f 71/1/98 54/1/98 72/4/98
f 73/1/99 77/44/99 75/42/99 53/1/99
f 51/1/100 74/43/100 77/44/100 73/1/100
f 74/43/101 61/42/101 76/41/101 77/44/101
f 20/21/102 54/1/102 24/20/102
f 25/22/103 81/45/103 54/1/103 20/21/103
f 5/28/104 35/38/104 4/37/104
f 3/29/105 35/38/105 5/28/105
f 30/1/106 35/38/106 78/1/106
f 35/38/107 3/29/107 78/1/107
f 1/1/108 78/1/108 3/29/108
f 31/11/109 43/4/109 72/4/109
f 78/1/110 1/1/110 79/1/110
f 78/1/111 79/1/111 30/1/111
f 43/4/112 30/1/112 79/1/112
f 31/11/113 79/1/113 43/4/113
f 8/2/114 79/1/114 1/1/114
f 9/3/115 79/1/115 8/2/115
f 79/1/116 9/3/116 80/1/116
f 79/1/117 31/11/117 80/1/117
f 54/1/118 81/45/118 72/4/118
f 81/45/119 25/22/119 82/1/119
f 81/45/120 82/1/120 72/4/120
f 72/4/121 43/4/121 82/1/121
f 43/4/122 82/1/122 30/1/122
f 82/1/123 25/22/123 30/1/123
f 30/1/124 25/22/124 21/23/124
f 23/24/125 30/1/125 21/23/125
f 30/1/126 23/24/126 27/25/126
f 28/26/127 30/1/127 27/25/127
f 30/1/128 28/26/128 35/38/128
f 35/1/129 28/1/129 4/1/129
f 29/9/130 11/8/130 40/32/130
f 11/8/131 42/31/131 40/32/131
f 13/7/132 42/31/132 11/8/132
f 7/6/133 42/31/133 13/7/133
f 42/31/134 7/6/134 83/6/134 84/31/134
f 84/31/135 83/6/135 85/1/135
f 84/31/136 85/1/136 69/1/136
f 10/1/137 85/1/137 83/6/137
f 6/4/138 85/1/138 10/1/138
f 85/1/139 6/4/139 86/1/139
f 85/1/140 86/1/140 69/1/140
f 69/1/141 86/1/141 31/11/141
f 80/1/142 31/11/142 86/1/142
f 86/1/143 6/4/143 80/1/143
f 80/1/144 9/1/144 6/1/144
f 87/49/145 100/50/145 99/51/145
f 88/52/146 100/53/146 102/54/146
f 87/55/147 99/56/147 104/57/147
f 87/58/148 104/59/148 106/60/148
f 87/61/149 106/62/149 103/63/149
f 88/52/150 102/54/150 109/64/150
f 89/65/151 101/66/151 111/67/151
f 90/68/152 105/69/152 113/70/152
f 91/71/153 107/72/153 115/73/153
f 92/74/154 108/75/154 117/76/154
f 88/52/155 109/64/155 112/77/155
f 89/65/156 111/67/156 114/78/156
f 90/68/157 113/70/157 116/79/157
f 91/71/158 115/73/158 118/80/158
f 92/74/159 117/76/159 110/81/159
f 93/82/160 119/83/160 124/84/160
f 94/85/161 120/86/161 126/87/161
f 95/88/162 121/89/162 127/90/162
f 96/91/163 122/92/163 128/93/163
f 97/94/164 123/95/164 125/96/164
f 125/96/165 128/97/165 98/98/165
f 125/96/166 123/95/166 128/97/166
f 123/95/167 96/91/167 128/97/167
f 128/93/168 127/99/168 98/100/168
f 128/93/169 122/92/169 127/99/169
f 122/92/170 95/88/170 127/99/170
f 127/90/171 126/101/171 98/102/171
f 127/90/172 121/89/172 126/101/172
f 121/89/173 94/103/173 126/101/173
f 126/87/174 124/104/174 98/105/174
f 126/87/175 120/86/175 124/104/175
f 120/86/176 93/82/176 124/104/176
f 124/84/177 125/106/177 98/107/177
f 124/84/178 119/83/178 125/106/178
f 119/83/179 97/94/179 125/106/179
f 110/81/180 123/95/180 97/94/180
f 110/81/181 117/76/181 123/95/181
f 117/76/182 96/91/182 123/95/182
f 118/80/183 122/92/183 96/91/183
f 118/80/184 115/73/184 122/92/184
f 115/73/185 95/88/185 122/92/185
f 116/79/186 121/89/186 95/88/186
f 116/79/187 113/70/187 121/89/187
f 113/70/188 94/103/188 121/89/188
f 114/78/189 120/86/189 94/85/189
f 114/78/190 111/67/190 120/86/190
f 111/67/191 93/82/191 120/86/191
f 112/77/192 119/83/192 93/82/192
f 112/77/193 109/64/193 119/83/193
f 109/64/194 97/94/194 119/83/194
f 117/76/195 118/80/195 96/91/195
f 117/76/196 108/75/196 118/80/196
f 108/75/197 91/71/197 118/80/197
f 115/73/198 116/79/198 95/88/198
f 115/73/199 107/72/199 116/79/199
f 107/72/200 90/68/200 116/79/200
f 113/70/201 114/108/201 94/103/201
f 113/70/202 105/69/202 114/108/202
f 105/69/203 89/109/203 114/108/203
f 111/67/204 112/77/204 93/82/204
f 111/67/205 101/66/205 112/77/205
f 101/66/206 88/52/206 112/77/206
f 109/64/207 110/81/207 97/94/207
f 109/64/208 102/54/208 110/81/208
f 102/54/209 92/74/209 110/81/209
f 103/63/210 108/75/210 92/74/210
f 103/63/211 106/62/211 108/75/211
f 106/62/212 91/71/212 108/75/212
f 106/60/213 107/72/213 91/71/213
f 106/60/214 104/59/214 107/72/214
f 104/59/215 90/68/215 107/72/215
f 104/57/216 105/69/216 90/68/216
f 104/57/217 99/56/217 105/69/217
f 99/56/218 89/109/218 105/69/218
f 102/54/219 103/110/219 92/74/219
f 102/54/220 100/53/220 103/110/220
f 100/53/221 87/111/221 103/110/221
f 99/51/222 101/66/222 89/65/222
f 99/51/223 100/50/223 101/66/223
f 100/50/224 88/52/224 101/66/224
f 129/49/145 142/50/145 141/51/145
f 130/52/146 142/53/146 144/54/146
f 129/55/147 141/56/147 146/57/147
f 129/58/148 146/59/148 148/60/148
f 129/61/149 148/62/149 145/63/149
f 130/52/150 144/54/150 151/64/150
f 131/65/151 143/66/151 153/67/151
f 132/68/152 147/69/152 155/70/152
f 133/71/153 149/72/153 157/73/153
f 134/74/154 150/75/154 159/76/154
f 130/52/155 151/64/155 154/77/155
f 131/65/156 153/67/156 156/78/156
f 132/68/157 155/70/157 158/79/157
f 133/71/158 157/73/158 160/80/158
f 134/74/159 159/76/159 152/81/159
f 135/82/160 161/83/160 166/84/160
f 136/85/161 162/86/161 168/87/161
f 137/88/162 163/89/162 169/90/162
f 138/91/163 164/92/163 170/93/163
f 139/94/164 165/95/164 167/96/164
f 167/96/165 170/97/165 140/98/165
f 167/96/166 165/95/166 170/97/166
f 165/95/167 138/91/167 170/97/167
f 170/93/168 169/99/168 140/100/168
f 170/93/169 164/92/169 169/99/169
f 164/92/170 137/88/170 169/99/170
f 169/90/171 168/101/171 140/102/171
f 169/90/172 163/89/172 168/101/172
f 163/89/173 136/103/173 168/101/173
f 168/87/174 166/104/174 140/105/174
f 168/87/175 162/86/175 166/104/175
f 162/86/176 135/82/176 166/104/176
f 166/84/177 167/106/177 140/107/177
f 166/84/178 161/83/178 167/106/178
f 161/83/179 139/94/179 167/106/179
f 152/81/180 165/95/180 139/94/180
f 152/81/181 159/76/181 165/95/181
f 159/76/182 138/91/182 165/95/182
f 160/80/183 164/92/183 138/91/183
f 160/80/184 157/73/184 164/92/184
f 157/73/185 137/88/185 164/92/185
f 158/79/186 163/89/186 137/88/186
f 158/79/187 155/70/187 163/89/187
f 155/70/188 136/103/188 163/89/188
f 156/78/189 162/86/189 136/85/189
f 156/78/190 153/67/190 162/86/190
f 153/67/191 135/82/191 162/86/191
f 154/77/192 161/83/192 135/82/192
f 154/77/193 151/64/193 161/83/193
f 151/64/194 139/94/194 161/83/194
f 159/76/195 160/80/195 138/91/195
f 159/76/196 150/75/196 160/80/196
f 150/75/197 133/71/197 160/80/197
f 157/73/198 158/79/198 137/88/198
f 157/73/199 149/72/199 158/79/199
f 149/72/200 132/68/200 158/79/200
f 155/70/201 156/108/201 136/103/201
f 155/70/202 147/69/202 156/108/202
f 147/69/203 131/109/203 156/108/203
f 153/67/204 154/77/204 135/82/204
f 153/67/205 143/66/205 154/77/205
f 143/66/206 130/52/206 154/77/206
f 151/64/207 152/81/207 139/94/207
f 151/64/208 144/54/208 152/81/208
f 144/54/209 134/74/209 152/81/209
f 145/63/210 150/75/210 134/74/210
f 145/63/211 148/62/211 150/75/211
f 148/62/212 133/71/212 150/75/212
f 148/60/213 149/72/213 133/71/213
f 148/60/214 146/59/214 149/72/214
f 146/59/215 132/68/215 149/72/215
f 146/57/216 147/69/216 132/68/216
f 146/57/217 141/56/217 147/69/217
f 141/56/218 131/109/218 147/69/218
f 144/54/219 145/110/219 134/74/219
f 144/54/220 142/53/220 145/110/220
f 142/53/221 129/111/221 145/110/221
f 141/51/222 143/66/222 131/65/222
f 141/51/223 142/50/223 143/66/223
f 142/50/224 130/52/224 143/66/224
